<mxfile host="app.diagrams.net" modified="2022-07-18T15:50:42.089Z" agent="5.0 (Windows NT 10.0; Win64; x64) AppleWebKit/537.36 (KHTML, like Gecko) Chrome/103.0.0.0 Safari/537.36" etag="rxmw70ZtEW5bZqgF0lec" version="20.0.4" type="github">
  <diagram id="F4c9sA8nU0R5i3kNn_jF" name="Page-1">
    <mxGraphModel dx="1020" dy="519" grid="1" gridSize="10" guides="1" tooltips="1" connect="1" arrows="1" fold="1" page="1" pageScale="1" pageWidth="850" pageHeight="1100" math="0" shadow="0">
      <root>
        <mxCell id="0" />
        <mxCell id="1" parent="0" />
        <mxCell id="XmxqzGR9LYmhOzF1cNH9-13" value="User Action" style="shape=rect;html=1;verticalAlign=top;fontStyle=1;whiteSpace=wrap;align=center;fontFamily=Verdana;" vertex="1" parent="1">
          <mxGeometry x="240" y="40" width="290" height="440" as="geometry" />
        </mxCell>
        <mxCell id="XmxqzGR9LYmhOzF1cNH9-5" value="Search Restaurant" style="ellipse;whiteSpace=wrap;html=1;fontFamily=Verdana;" vertex="1" parent="1">
          <mxGeometry x="310" y="87" width="140" height="70" as="geometry" />
        </mxCell>
        <mxCell id="XmxqzGR9LYmhOzF1cNH9-6" value="View Menu of the restaurant" style="ellipse;whiteSpace=wrap;html=1;fontFamily=Verdana;" vertex="1" parent="1">
          <mxGeometry x="310" y="230" width="140" height="70" as="geometry" />
        </mxCell>
        <mxCell id="XmxqzGR9LYmhOzF1cNH9-7" value="Select/Deselect&lt;br&gt;Menu" style="ellipse;whiteSpace=wrap;html=1;fontFamily=Verdana;" vertex="1" parent="1">
          <mxGeometry x="310" y="366" width="140" height="70" as="geometry" />
        </mxCell>
        <mxCell id="XmxqzGR9LYmhOzF1cNH9-8" value="&amp;lt;&amp;lt;include&amp;gt;&amp;gt;" style="html=1;verticalAlign=bottom;labelBackgroundColor=none;endArrow=open;endFill=0;dashed=1;rounded=0;fontFamily=Verdana;exitX=0.5;exitY=0;exitDx=0;exitDy=0;entryX=0.5;entryY=1;entryDx=0;entryDy=0;" edge="1" parent="1" source="XmxqzGR9LYmhOzF1cNH9-6" target="XmxqzGR9LYmhOzF1cNH9-5">
          <mxGeometry x="-0.1429" width="160" relative="1" as="geometry">
            <mxPoint x="330" y="220" as="sourcePoint" />
            <mxPoint x="490" y="220" as="targetPoint" />
            <Array as="points">
              <mxPoint x="380" y="210" />
            </Array>
            <mxPoint as="offset" />
          </mxGeometry>
        </mxCell>
        <mxCell id="XmxqzGR9LYmhOzF1cNH9-9" value="&amp;lt;&amp;lt;include&amp;gt;&amp;gt;" style="html=1;verticalAlign=bottom;labelBackgroundColor=none;endArrow=open;endFill=0;dashed=1;rounded=0;fontFamily=Verdana;entryX=0.5;entryY=1;entryDx=0;entryDy=0;exitX=0.5;exitY=0;exitDx=0;exitDy=0;" edge="1" parent="1" source="XmxqzGR9LYmhOzF1cNH9-7" target="XmxqzGR9LYmhOzF1cNH9-6">
          <mxGeometry x="-0.1429" width="160" relative="1" as="geometry">
            <mxPoint x="390" y="370" as="sourcePoint" />
            <mxPoint x="379.5" y="300" as="targetPoint" />
            <Array as="points">
              <mxPoint x="379.5" y="350" />
            </Array>
            <mxPoint as="offset" />
          </mxGeometry>
        </mxCell>
        <mxCell id="XmxqzGR9LYmhOzF1cNH9-14" value="Actor" style="shape=umlActor;verticalLabelPosition=bottom;verticalAlign=top;html=1;outlineConnect=0;fontFamily=Verdana;" vertex="1" parent="1">
          <mxGeometry x="625" y="245" width="30" height="60" as="geometry" />
        </mxCell>
        <mxCell id="XmxqzGR9LYmhOzF1cNH9-20" value="" style="edgeStyle=none;html=1;endArrow=none;verticalAlign=bottom;rounded=0;fontFamily=Verdana;entryX=0;entryY=0.3333333333333333;entryDx=0;entryDy=0;entryPerimeter=0;" edge="1" parent="1" source="XmxqzGR9LYmhOzF1cNH9-6" target="XmxqzGR9LYmhOzF1cNH9-14">
          <mxGeometry width="160" relative="1" as="geometry">
            <mxPoint x="340" y="220" as="sourcePoint" />
            <mxPoint x="500" y="220" as="targetPoint" />
          </mxGeometry>
        </mxCell>
        <mxCell id="XmxqzGR9LYmhOzF1cNH9-26" value="" style="edgeStyle=none;html=1;endArrow=none;verticalAlign=bottom;rounded=0;fontFamily=Verdana;exitX=1;exitY=0.5;exitDx=0;exitDy=0;" edge="1" parent="1">
          <mxGeometry width="160" relative="1" as="geometry">
            <mxPoint x="451" y="122" as="sourcePoint" />
            <mxPoint x="640" y="120" as="targetPoint" />
          </mxGeometry>
        </mxCell>
        <mxCell id="XmxqzGR9LYmhOzF1cNH9-27" value="" style="edgeStyle=none;html=1;endArrow=none;verticalAlign=bottom;rounded=0;fontFamily=Verdana;exitX=1;exitY=0.5;exitDx=0;exitDy=0;" edge="1" parent="1" source="XmxqzGR9LYmhOzF1cNH9-7">
          <mxGeometry width="160" relative="1" as="geometry">
            <mxPoint x="449.9309664526377" y="399.5540214767253" as="sourcePoint" />
            <mxPoint x="570" y="400" as="targetPoint" />
          </mxGeometry>
        </mxCell>
        <mxCell id="XmxqzGR9LYmhOzF1cNH9-30" value="" style="edgeStyle=none;html=1;endArrow=none;verticalAlign=bottom;rounded=0;fontFamily=Verdana;exitX=0.5;exitY=0;exitDx=0;exitDy=0;exitPerimeter=0;" edge="1" parent="1" source="XmxqzGR9LYmhOzF1cNH9-14">
          <mxGeometry width="160" relative="1" as="geometry">
            <mxPoint x="640" y="240" as="sourcePoint" />
            <mxPoint x="640" y="120" as="targetPoint" />
          </mxGeometry>
        </mxCell>
        <mxCell id="XmxqzGR9LYmhOzF1cNH9-31" value="" style="edgeStyle=none;html=1;endArrow=none;verticalAlign=bottom;rounded=0;fontFamily=Verdana;exitX=0;exitY=1;exitDx=0;exitDy=0;exitPerimeter=0;" edge="1" parent="1" source="XmxqzGR9LYmhOzF1cNH9-14">
          <mxGeometry width="160" relative="1" as="geometry">
            <mxPoint x="460" y="415" as="sourcePoint" />
            <mxPoint x="570" y="400" as="targetPoint" />
          </mxGeometry>
        </mxCell>
      </root>
    </mxGraphModel>
  </diagram>
</mxfile>
